<?xml version="1.0" encoding="utf-8"?>
<!-- Generator: Adobe Illustrator 23.0.3, SVG Export Plug-In . SVG Version: 6.00 Build 0)  -->
<svg version="1.1" id="Layer_1" xmlns="http://www.w3.org/2000/svg" xmlns:xlink="http://www.w3.org/1999/xlink" x="0px" y="0px"
	 viewBox="0 0 58.61 56.17" style="enable-background:new 0 0 58.61 56.17;" xml:space="preserve">
<style type="text/css">
	.st0{fill:#ffffff;}
</style>
<g id="team_1_" transform="translate(0 0)">
	<path id="Path_118" class="st0" d="M50.49,44.5c0.86-0.78,1.35-1.89,1.35-3.06v-1.67c0-2.31-1.87-4.17-4.18-4.17
		c-1.98,0-3.69,1.4-4.09,3.34h-2.74c-0.45-1.3-1.88-1.98-3.17-1.53c-0.71,0.25-1.28,0.81-1.53,1.53h-2.74
		c-0.34-1.64-1.62-2.92-3.26-3.26v-1.87c1.47-0.38,2.5-1.7,2.5-3.22h0.83c0.46,0,0.83-0.37,0.83-0.83c0,0,0,0,0,0v-2.5h1.67v-1.67
		h-1.66v-0.01c0.03-1.67,0.79-3.24,2.08-4.3c4.54-3.91,5.05-10.76,1.14-15.3c-2.16-2.51-5.36-3.9-8.68-3.76
		c-5.71,0.3-10.23,4.93-10.4,10.65c-0.06,3.19,1.3,6.25,3.7,8.35c1.29,1.1,2.07,2.68,2.14,4.37h-1.67v1.67h1.67v2.5
		c0,0.46,0.37,0.83,0.83,0.83c0,0,0,0,0,0h0.83c0,1.52,1.03,2.84,2.5,3.22v1.87c-1.64,0.34-2.91,1.62-3.25,3.26h-2.74
		c-0.45-1.3-1.88-1.98-3.17-1.53c-0.71,0.25-1.28,0.81-1.53,1.53h-2.74c-0.46-2.26-2.66-3.72-4.92-3.26
		c-1.94,0.4-3.34,2.11-3.34,4.09v1.67c0,1.16,0.49,2.27,1.35,3.06c-2.83,1.15-4.69,3.9-4.69,6.96v1.67c0,0.46,0.37,0.83,0.83,0.83
		c0,0,0,0,0,0h13.36c0.46,0,0.83-0.37,0.83-0.83c0,0,0,0,0,0v-1.67c0-3.06-1.86-5.81-4.69-6.96c0.86-0.78,1.36-1.89,1.36-3.06v-0.83
		h2.66c0.45,1.3,1.88,1.98,3.17,1.53c0.71-0.25,1.28-0.81,1.53-1.53h2.66v0.83c0,1.16,0.49,2.27,1.35,3.06
		c-2.83,1.15-4.69,3.9-4.69,6.96v1.67c0,0.46,0.37,0.83,0.83,0.83c0,0,0,0,0,0h13.36c0.46,0,0.83-0.37,0.83-0.83c0,0,0,0,0,0v-1.67
		c0-3.06-1.86-5.81-4.69-6.96c0.86-0.78,1.35-1.89,1.35-3.06v-0.83h2.66c0.45,1.3,1.88,1.98,3.17,1.53
		c0.71-0.25,1.28-0.81,1.53-1.53h2.66v0.83c0,1.16,0.5,2.27,1.36,3.06c-2.83,1.15-4.69,3.9-4.69,6.96v1.67
		c0,0.46,0.37,0.83,0.83,0.83c0,0,0,0,0,0h13.36c0.46,0,0.83-0.37,0.83-0.83c0,0,0,0,0,0v-1.67C55.18,48.4,53.33,45.65,50.49,44.5z
		 M16.78,51.46v0.84h-1.67v-1.67h-1.67v1.67H8.43v-1.67H6.76v1.67H5.09v-0.84c0-3.23,2.61-5.84,5.84-5.85
		C14.16,45.61,16.78,48.23,16.78,51.46C16.78,51.46,16.78,51.46,16.78,51.46z M8.43,41.44v-1.67c0-1.38,1.12-2.5,2.5-2.5
		s2.5,1.12,2.5,2.5v1.67c0,1.38-1.12,2.5-2.5,2.5S8.43,42.83,8.43,41.44z M20.12,40.61c-0.46,0-0.83-0.37-0.84-0.83
		c0-0.46,0.37-0.83,0.83-0.83c0.46,0,0.84,0.37,0.84,0.83l0,0C20.96,40.23,20.58,40.61,20.12,40.61z M23.25,19.95
		c-2.03-1.78-3.18-4.36-3.13-7.06c0.14-4.83,3.97-8.75,8.8-9.01c5.06-0.22,9.34,3.71,9.56,8.78c0.12,2.81-1.05,5.51-3.18,7.34
		c-1.65,1.38-2.62,3.42-2.66,5.57v0.01h-6.69C25.88,23.41,24.9,21.36,23.25,19.95L23.25,19.95z M32.65,27.25v1.67h-6.68v-1.67H32.65
		z M27.64,30.59h3.34c0,0.92-0.75,1.67-1.67,1.67S27.64,31.51,27.64,30.59z M35.15,51.46v0.84h-1.67v-1.67h-1.67v1.67H26.8v-1.67
		h-1.67v1.67h-1.67v-0.84c0-3.23,2.62-5.84,5.84-5.85S35.15,48.23,35.15,51.46C35.15,51.46,35.15,51.46,35.15,51.46z M26.8,41.44
		v-1.67c0-1.38,1.12-2.5,2.5-2.5c1.38,0,2.5,1.12,2.5,2.5l0,0v1.67c0,1.38-1.12,2.5-2.5,2.5S26.8,42.83,26.8,41.44z M38.49,40.61
		c-0.46,0-0.83-0.37-0.83-0.83c0-0.46,0.37-0.83,0.83-0.83c0.46,0,0.83,0.37,0.83,0.83l0,0C39.32,40.23,38.95,40.61,38.49,40.61z
		 M45.17,41.44v-1.67c0-1.38,1.12-2.5,2.5-2.5c1.38,0,2.5,1.12,2.5,2.5v1.67c0,1.38-1.12,2.5-2.5,2.5
		C46.29,43.95,45.17,42.83,45.17,41.44z M53.52,52.3h-1.67v-1.67h-1.67v1.67h-5.01v-1.67H43.5v1.67h-1.67v-0.84
		c0-3.23,2.62-5.84,5.84-5.85c3.23,0,5.84,2.62,5.85,5.84c0,0,0,0,0,0L53.52,52.3z"/>
	<path id="Path_119" class="st0" d="M27.64,22.24h3.34v1.67h-3.34V22.24z"/>
	<path id="Path_120" class="st0" d="M28.47,17.15v1.75h1.67v-1.75c0.52-0.11,1.02-0.31,1.46-0.61l1.29,1.29l1.18-1.18l-1.29-1.29
		c0.3-0.44,0.5-0.94,0.61-1.46h1.76v-1.67H33.4c-0.11-0.52-0.32-1.02-0.61-1.46l1.29-1.29l-1.18-1.18l-1.29,1.29
		c-0.44-0.3-0.94-0.5-1.46-0.61V7.21h-1.67v1.75c-0.52,0.11-1.02,0.31-1.46,0.61l-1.29-1.29l-1.18,1.18l1.29,1.29
		c-0.3,0.44-0.5,0.94-0.61,1.46h-1.75v1.67h1.75c0.11,0.52,0.32,1.02,0.61,1.46l-1.29,1.29l1.18,1.18l1.29-1.29
		C27.45,16.83,27.95,17.04,28.47,17.15z M29.3,10.55c1.38,0,2.5,1.12,2.5,2.5s-1.12,2.5-2.5,2.5s-2.5-1.12-2.5-2.5
		C26.81,11.67,27.93,10.56,29.3,10.55z"/>
</g>
</svg>
