<?xml version="1.0" encoding="utf-8"?>
<!-- Generator: Adobe Illustrator 23.0.3, SVG Export Plug-In . SVG Version: 6.00 Build 0)  -->
<svg version="1.1" id="Layer_1" xmlns="http://www.w3.org/2000/svg" xmlns:xlink="http://www.w3.org/1999/xlink" x="0px" y="0px"
	 viewBox="0 0 58.61 56.17" style="enable-background:new 0 0 58.61 56.17;" xml:space="preserve">
<style type="text/css">
	.st0{fill:#fff;}
</style>
<g id="Group_6" transform="translate(0 0)">
	<g id="Group_5" transform="translate(13.691 27.856)">
		<path id="Path_86" class="st0" d="M5.14,3.92h1.61v1.61H5.14V3.92z"/>
		<path id="Path_87" class="st0" d="M8.37,3.92h1.61v1.61H8.37V3.92z"/>
		<path id="Path_88" class="st0" d="M11.59,3.92h1.61v1.61h-1.61V3.92z"/>
		<path id="Path_89" class="st0" d="M5.14,7.14h1.61v1.61H5.14V7.14z"/>
		<path id="Path_90" class="st0" d="M8.37,7.14h1.61v1.61H8.37V7.14z"/>
		<path id="Path_91" class="st0" d="M11.59,7.14h1.61v1.61h-1.61V7.14z"/>
		<path id="Path_92" class="st0" d="M14.81,7.14h1.61v1.61h-1.61V7.14z"/>
		<path id="Path_93" class="st0" d="M18.03,7.14h1.61v1.61h-1.61V7.14z"/>
		<path id="Path_94" class="st0" d="M5.14,10.37h1.61v1.61H5.14V10.37z"/>
		<path id="Path_95" class="st0" d="M8.37,10.37h1.61v1.61H8.37V10.37z"/>
		<path id="Path_96" class="st0" d="M11.59,10.37h1.61v1.61h-1.61V10.37z"/>
		<path id="Path_97" class="st0" d="M14.81,10.37h1.61v1.61h-1.61V10.37z"/>
		<path id="Path_98" class="st0" d="M18.03,10.37h1.61v1.61h-1.61V10.37z"/>
		<path id="Path_99" class="st0" d="M5.14,13.59h1.61v1.61H5.14V13.59z"/>
		<path id="Path_100" class="st0" d="M8.37,13.59h1.61v1.61H8.37V13.59z"/>
		<path id="Path_101" class="st0" d="M11.59,13.59h1.61v1.61h-1.61V13.59z"/>
		<path id="Path_102" class="st0" d="M14.81,13.59h1.61v1.61h-1.61V13.59z"/>
		<path id="Path_103" class="st0" d="M18.03,13.59h1.61v1.61h-1.61V13.59z"/>
		<path id="Path_104" class="st0" d="M5.14,16.81h1.61v1.61H5.14V16.81z"/>
		<path id="Path_105" class="st0" d="M8.37,16.81h1.61v1.61H8.37V16.81z"/>
		<path id="Path_106" class="st0" d="M11.59,16.81h1.61v1.61h-1.61V16.81z"/>
		<path id="Path_107" class="st0" d="M14.81,16.81h1.61v1.61h-1.61V16.81z"/>
		<path id="Path_108" class="st0" d="M18.03,16.81h1.61v1.61h-1.61V16.81z"/>
		<path id="Path_109" class="st0" d="M5.14,20.03h1.61v1.61H5.14V20.03z"/>
		<path id="Path_110" class="st0" d="M8.37,20.03h1.61v1.61H8.37V20.03z"/>
		<path id="Path_111" class="st0" d="M11.59,20.03h1.61v1.61h-1.61V20.03z"/>
		<path id="Path_112" class="st0" d="M14.81,20.03h1.61v1.61h-1.61V20.03z"/>
		<path id="Path_113" class="st0" d="M18.03,20.03h1.61v1.61h-1.61V20.03z"/>
	</g>
	<path id="Path_114" class="st0" d="M52.66,6.34h-5.64V4.73c0-0.44-0.36-0.81-0.81-0.81c0,0,0,0,0,0h-8.05
		c-0.44,0-0.81,0.36-0.81,0.8c0,0,0,0,0,0v1.61H5.95c-0.44,0-0.8,0.36-0.8,0.81c0,0,0,0,0,0v3.22c0,0.44,0.36,0.8,0.8,0.8h2.42v15.3
		c0,0.44,0.36,0.81,0.8,0.81c0,0,0,0,0,0c0.44,0,0.8,0.36,0.8,0.81s-0.36,0.81-0.8,0.81c-0.44,0-0.81-0.36-0.81-0.81H6.76
		c0,0.59,0.22,1.16,0.62,1.6l-2.07,2.75l0.01,0.01c-0.11,0.14-0.17,0.3-0.17,0.48v3.22c0,0.21,0.08,0.42,0.24,0.57l1.61,1.61
		c0.15,0.15,0.36,0.24,0.57,0.24h3.22c0.21,0,0.42-0.09,0.57-0.24l1.61-1.61c0.15-0.15,0.24-0.36,0.24-0.57v-3.22
		c0-0.17-0.06-0.34-0.17-0.48l0.01-0.01l-2.07-2.75c0.89-0.98,0.81-2.5-0.18-3.39c-0.24-0.21-0.52-0.38-0.82-0.48V11.17h27.38v0.81
		c0,0.44,0.36,0.81,0.81,0.81l0,0h1.61v37.85h-3.22V18.42h-1.61v3.22h-4.83v-1.61H28.5v1.61h-4.83v-0.81h-1.61v0.81h-4.83v-2.42
		h10.47v-1.61H17.22v-3.22h-1.61v36.24h-1.28l-3.79-3.79c-0.31-0.31-0.82-0.31-1.14,0c0,0,0,0,0,0l-3.79,3.79H5.14v1.61h48.32v-1.61
		h-0.63c0.89-0.98,0.83-2.49-0.15-3.38c-0.29-0.26-0.63-0.45-1.01-0.55c0.5-1.24-0.09-2.65-1.33-3.15c-1.24-0.5-2.65,0.09-3.15,1.33
		c-0.24,0.58-0.24,1.24,0,1.82c-1.28,0.33-2.05,1.64-1.71,2.92c0.1,0.38,0.29,0.72,0.55,1.01h-1.43V12.78h1.61
		c0.44,0,0.81-0.36,0.81-0.8c0,0,0,0,0,0v-0.81h5.64c0.44,0,0.81-0.36,0.81-0.81l0,0V7.14C53.46,6.7,53.1,6.34,52.66,6.34z
		 M9.57,30.5l1.21,1.61H7.56l1.21-1.61H9.57z M11.59,35.8l-1.14,1.14H7.89L6.76,35.8v-2.08h4.83L11.59,35.8z M49.2,7.95L47.02,9.4
		V7.95H49.2z M38.97,5.53h3.22v3.22h-3.22V5.53z M17.22,8.11l2.18,1.45h-4.35L17.22,8.11z M12.39,9.4l-2.18-1.45h4.35L12.39,9.4z
		 M19.88,7.95h4.35L22.06,9.4L19.88,7.95z M26.89,8.11l2.17,1.45h-4.35L26.89,8.11z M29.54,7.95h4.35L31.72,9.4L29.54,7.95z
		 M6.75,7.95h0.56l2.42,1.61H6.76L6.75,7.95z M34.38,9.56l2.42-1.61h0.56v1.61H34.38z M42.99,47.98l-1.45-2.18L43,43.62L42.99,47.98
		z M42.99,28.65l-1.45-2.18l1.45-2.17L42.99,28.65z M41.38,29.13l1.45,2.17l-1.45,2.17L41.38,29.13z M41.38,23.82v-4.35l1.45,2.17
		L41.38,23.82z M41.38,38.79l1.45,2.17l-1.45,2.17L41.38,38.79z M42.99,38.31l-1.45-2.17l1.45-2.17L42.99,38.31z M41.54,16.81
		l1.45-2.17v4.35L41.54,16.81z M41.38,14.15v-1.37h0.91L41.38,14.15z M34.94,23.25v8.05h-4.83v-8.05L34.94,23.25z M28.5,23.25v6.93
		l-1.85-1.83c-0.15-0.15-0.35-0.23-0.56-0.23h-2.41v-4.86L28.5,23.25z M22.05,23.25v1.34h-4.83v-1.34L22.05,23.25z M9.97,48.55
		l2.08,2.08H7.89L9.97,48.55z M17.22,50.63V26.2h4.83v2.72c0,0.44,0.36,0.81,0.81,0.81l0,0h2.89l3,2.95
		c0.15,0.15,0.35,0.23,0.56,0.23h5.64v17.72L17.22,50.63z M41.38,48.46l1.45,2.17h-1.45L41.38,48.46z M51.04,49.82
		c-0.44,0-0.81-0.36-0.81-0.81s0.36-0.81,0.81-0.81s0.81,0.36,0.81,0.81S51.49,49.82,51.04,49.82L51.04,49.82z M49.43,44.99
		c0.44,0,0.81,0.36,0.81,0.81s-0.36,0.81-0.81,0.81s-0.81-0.36-0.81-0.81C48.63,45.35,48.99,44.99,49.43,44.99
		C49.44,45,49.44,45,49.43,44.99L49.43,44.99z M47.82,48.21c0.44,0,0.81,0.36,0.81,0.81s-0.36,0.81-0.81,0.81s-0.81-0.36-0.81-0.81
		C47.02,48.57,47.38,48.21,47.82,48.21C47.83,48.22,47.83,48.22,47.82,48.21L47.82,48.21z M45.41,11.17h-6.44v-0.81H43
		c0.44,0,0.81-0.36,0.81-0.81l0,0V5.53h1.61L45.41,11.17z M49.68,9.56l2.17-1.45v1.45H49.68z"/>
</g>
</svg>
