<?xml version="1.0" encoding="utf-8"?>
<!-- Generator: Adobe Illustrator 23.0.3, SVG Export Plug-In . SVG Version: 6.00 Build 0)  -->
<svg version="1.1" id="Layer_1" xmlns="http://www.w3.org/2000/svg" xmlns:xlink="http://www.w3.org/1999/xlink" x="0px" y="0px"
	 viewBox="0 0 58.61 56.17" style="enable-background:new 0 0 58.61 56.17;" xml:space="preserve">
<style type="text/css">
	.st0{fill:#1f2638;}
</style>
<g>
	<path id="Path_121" class="st0" d="M25.33,13.76c0-5.71-4.63-10.34-10.34-10.34c-5.71,0-10.34,4.63-10.34,10.34
		c0,5.71,4.63,10.34,10.34,10.34l0,0C20.69,24.1,25.32,19.47,25.33,13.76z M6.23,13.76c0-4.83,3.92-8.75,8.76-8.75
		c4.83,0,8.75,3.92,8.75,8.76c0,4.83-3.92,8.75-8.75,8.75C10.15,22.51,6.23,18.59,6.23,13.76L6.23,13.76z"/>
	<path id="Path_122" class="st0" d="M14.98,11.37c0.44,0,0.8,0.36,0.8,0.8c0,0,0,0,0,0h1.59c0-1.01-0.64-1.91-1.59-2.24V8.99h-1.6
		v0.94c-1.24,0.43-1.89,1.79-1.46,3.03c0.34,0.96,1.24,1.6,2.26,1.59c0.44,0,0.8,0.36,0.8,0.8s-0.36,0.8-0.8,0.8
		c-0.44,0-0.8-0.36-0.8-0.8H12.6c0,1.01,0.64,1.91,1.59,2.24v0.94h1.59V17.6c1.24-0.43,1.89-1.79,1.46-3.03
		c-0.34-0.96-1.24-1.6-2.26-1.59c-0.44-0.05-0.76-0.44-0.71-0.88C14.31,11.72,14.6,11.42,14.98,11.37L14.98,11.37z"/>
	<path id="Path_123" class="st0" d="M14.98,8.19c3.07,0,5.57,2.5,5.57,5.57c0,1.24-0.41,2.44-1.17,3.41l1.26,0.98
		c0.98-1.25,1.51-2.8,1.51-4.39c-0.01-3.95-3.21-7.16-7.16-7.16c-1.59,0-3.14,0.53-4.39,1.51l0.98,1.26
		C12.54,8.6,13.75,8.19,14.98,8.19z"/>
	<path id="Path_124" class="st0" d="M19.37,19.41l-0.98-1.26c-0.97,0.76-2.17,1.18-3.41,1.17c-3.07,0-5.57-2.5-5.57-5.57
		c0-1.24,0.41-2.44,1.17-3.41L9.33,9.38c-0.98,1.25-1.51,2.8-1.51,4.39c0,3.95,3.21,7.16,7.16,7.16
		C16.57,20.93,18.12,20.4,19.37,19.41z"/>
	<path id="Path_125" class="st0" d="M49.2,17.74h-1.59v-6.36h-1.59V8.19h-3.98V3.42h-1.59v4.77h-3.98v3.18h-1.59v6.37h-1.59v11.14
		H31.7v-4.78h-1.59v-3.18h-2.39v-3.98h-1.59v3.98h-2.39v3.18h-1.59v4.77h-3.18v22.28h-1.6v1.59h33.42v-1.59H49.2V17.74z M38.06,9.78
		h6.37v1.59h-6.37V9.78z M36.47,12.97h9.55v4.77h-1.59v-3.18h-1.59v3.18h-3.18v-3.18h-1.59v3.18h-1.59V12.97z M47.61,19.33v31.83
		h-2.39V43.2h-7.96v7.96h-2.39V19.33H47.61z M43.63,51.16h-4.77v-6.37h4.77V51.16z M25.33,22.52h3.18v1.59h-3.18V22.52z M23.74,25.7
		h6.37v3.18h-2.39v-1.6h-1.59v1.59h-2.39L23.74,25.7z M20.55,30.47h12.73v20.68h-1.59v-19.1H30.1v19.1h-2.39v-19.1h-1.59v19.1h-2.39
		v-19.1h-1.59v19.1h-1.59L20.55,30.47z"/>
	<path id="Path_126" class="st0" d="M36.47,20.92h1.59v1.59h-1.59V20.92z"/>
	<path id="Path_127" class="st0" d="M40.44,20.92h1.59v1.59h-1.59V20.92z"/>
	<path id="Path_128" class="st0" d="M44.42,20.92h1.59v1.59h-1.59V20.92z"/>
	<path id="Path_129" class="st0" d="M36.47,25.7h1.59v1.59h-1.59V25.7z"/>
	<path id="Path_130" class="st0" d="M40.44,25.7h1.59v1.59h-1.59V25.7z"/>
	<path id="Path_131" class="st0" d="M44.42,25.7h1.59v1.59h-1.59V25.7z"/>
	<path id="Path_132" class="st0" d="M36.47,30.47h1.59v1.59h-1.59V30.47z"/>
	<path id="Path_133" class="st0" d="M40.44,30.47h1.59v1.59h-1.59V30.47z"/>
	<path id="Path_134" class="st0" d="M44.42,30.47h1.59v1.59h-1.59V30.47z"/>
	<path id="Path_135" class="st0" d="M36.47,35.25h1.59v1.59h-1.59V35.25z"/>
	<path id="Path_136" class="st0" d="M40.44,35.25h1.59v1.59h-1.59V35.25z"/>
	<path id="Path_137" class="st0" d="M44.42,35.25h1.59v1.59h-1.59V35.25z"/>
	<path id="Path_138" class="st0" d="M36.47,40.02h1.59v1.59h-1.59V40.02z"/>
	<path id="Path_139" class="st0" d="M40.44,40.02h1.59v1.59h-1.59V40.02z"/>
	<path id="Path_140" class="st0" d="M44.42,40.02h1.59v1.59h-1.59V40.02z"/>
	<path id="Path_141" class="st0" d="M4.64,27.29h1.59v1.59H4.64V27.29z"/>
	<path id="Path_142" class="st0" d="M4.64,30.47h1.59v9.55H4.64V30.47z"/>
	<path id="Path_143" class="st0" d="M9.41,32.86H11v1.59H9.41V32.86z"/>
	<path id="Path_144" class="st0" d="M9.41,36.04H11v9.55H9.41V36.04z"/>
	<path id="Path_145" class="st0" d="M14.19,27.29h1.59v1.59h-1.59V27.29z"/>
	<path id="Path_146" class="st0" d="M14.19,30.47h1.59v9.55h-1.59V30.47z"/>
	<path id="Path_147" class="st0" d="M52.38,51.16h1.59v1.59h-1.59V51.16z"/>
	<path id="Path_148" class="st0" d="M14.19,51.16h1.59v1.59h-1.59V51.16z"/>
</g>
</svg>
